<svg xmlns="http://www.w3.org/2000/svg" viewBox="0 0 36 36"><defs><style>.a{fill:#1586ff;}.b{fill:none;}.c{opacity:0.1;}.d{fill:#fff;}</style></defs><title>logo</title><path class="a" d="M32,36H4a4,4,0,0,1-4-4V4A4,4,0,0,1,4,0H32a4,4,0,0,1,4,4V32A4,4,0,0,1,32,36Z"/><line class="b" x1="17.92" y1="7.49" x2="17.92" y2="25.95"/><polygon class="b" points="18 20 18 12.09 14.86 20 18 20"/><polygon class="b" points="20.98 20 17.95 12.02 18 12.09 18 20 20.98 20"/><path class="c" d="M15.46,8.2,0,21.21V32a4,4,0,0,0,4,4H19l8.29-7.58-7.62-19Z"/><path class="d" d="M23.29,26.26l-1-2.68H13.59l-1,2.74a9.62,9.62,0,0,1-1,2.16,1.62,1.62,0,0,1-1.38.56,2,2,0,0,1-1.44-.6,1.83,1.83,0,0,1-.63-1.35,3,3,0,0,1,.15-.9q.15-.47.48-1.3L14.18,11l.56-1.43a7.24,7.24,0,0,1,.7-1.39,2.85,2.85,0,0,1,1-.9A3,3,0,0,1,17.91,7a3,3,0,0,1,1.51.34,2.89,2.89,0,0,1,1,.88A6.17,6.17,0,0,1,21,9.34q.25.62.65,1.65l5.58,13.78a6.92,6.92,0,0,1,.66,2.29,1.9,1.9,0,0,1-.62,1.36,2,2,0,0,1-1.49.62,1.92,1.92,0,0,1-.87-.18,1.78,1.78,0,0,1-.61-.5,4.51,4.51,0,0,1-.53-1C23.59,27,23.42,26.59,23.29,26.26Zm-8.56-5.93H21.1l-3.22-8.81Z"/></svg>